<svg xmlns="http://www.w3.org/2000/svg" width="261.038" height="100" viewBox="0 0 261.038 100">
  <g id="Page-1" transform="translate(0 -0.178)">
    <g id="_1024x1024-Full_Logo-Transparent_BG" data-name="1024x1024-Full_Logo-Transparent_BG" transform="translate(0 0.178)">
      <path id="Path" d="M20.053,42.359A5.866,5.866,0,0,1,21.9,43.776a2.163,2.163,0,0,1,.487,1.271,5.285,5.285,0,0,1-.373,1.76,16.671,16.671,0,0,1-.925,1.972l-.957.065a9.565,9.565,0,0,0-3.391-2.51,10.872,10.872,0,0,0-4.77-1.076,14.68,14.68,0,0,0-1.963.163,7.3,7.3,0,0,0-2,.619,4.026,4.026,0,0,0-1.541,1.271,3.4,3.4,0,0,0-.617,2.07A3.3,3.3,0,0,0,7.82,52.561a24.51,24.51,0,0,0,4.835,1.662,32.064,32.064,0,0,1,3.975,1.206,13.284,13.284,0,0,1,3.391,1.858,8.056,8.056,0,0,1,2.336,2.869,9.568,9.568,0,0,1,.86,4.27,9.279,9.279,0,0,1-1.022,4.449,9.738,9.738,0,0,1-2.742,3.178,12.141,12.141,0,0,1-4.024,1.923,17.2,17.2,0,0,1-4.769.652,23.193,23.193,0,0,1-4.332-.375A16.9,16.9,0,0,1,3.1,73.324,6.679,6.679,0,0,1,.7,71.906,2.137,2.137,0,0,1,0,70.423a4.125,4.125,0,0,1,.487-1.858c.324-.636.73-1.369,1.233-2.2.324.277.762.619,1.33,1.027a13.1,13.1,0,0,0,2.044,1.173,14.676,14.676,0,0,0,2.628.929,11.669,11.669,0,0,0,3.082.375,11.518,11.518,0,0,0,2.385-.244,6.589,6.589,0,0,0,2.093-.8,4.486,4.486,0,0,0,1.509-1.516,4.617,4.617,0,0,0,.584-2.412,4.28,4.28,0,0,0-.617-2.38A5,5,0,0,0,15.12,60.97a9.717,9.717,0,0,0-2.288-.994c-.844-.244-1.7-.473-2.563-.652a27.663,27.663,0,0,1-3.8-1.076,11.769,11.769,0,0,1-3.212-1.76,8.286,8.286,0,0,1-2.255-2.754,8.654,8.654,0,0,1-.86-4.009A8.336,8.336,0,0,1,1.1,45.7a8.278,8.278,0,0,1,2.612-2.9,12.754,12.754,0,0,1,3.748-1.728,16.115,16.115,0,0,1,4.364-.587,18.985,18.985,0,0,1,4.77.554A14.261,14.261,0,0,1,20.053,42.359Z" transform="translate(0 25.275)" fill="#fff"/>
      <path id="Shape" d="M47.915,57.307a25.547,25.547,0,0,1-.828,6.519,15.856,15.856,0,0,1-2.644,5.557,13.086,13.086,0,0,1-4.7,3.862A15.538,15.538,0,0,1,32.73,74.7a15.737,15.737,0,0,1-6.96-1.385A12.807,12.807,0,0,1,21.13,69.6a15.557,15.557,0,0,1-2.612-5.476,25.686,25.686,0,0,1-.827-6.584,22.289,22.289,0,0,1,.957-6.552,15.335,15.335,0,0,1,2.888-5.411,13.922,13.922,0,0,1,4.77-3.683,15.328,15.328,0,0,1,6.7-1.385,15.391,15.391,0,0,1,6.863,1.385,12.727,12.727,0,0,1,4.592,3.683,15.211,15.211,0,0,1,2.612,5.345A23.38,23.38,0,0,1,47.915,57.307Zm-6.116,0a24.766,24.766,0,0,0-.373-4.237,11.848,11.848,0,0,0-1.346-3.8,7.451,7.451,0,0,0-2.693-2.721,8.678,8.678,0,0,0-4.478-1.043,8.468,8.468,0,0,0-4.381,1.043,7.857,7.857,0,0,0-2.791,2.721,12.059,12.059,0,0,0-1.493,3.8,20.79,20.79,0,0,0-.454,4.237,26.742,26.742,0,0,0,.373,4.351,11.619,11.619,0,0,0,1.412,3.96,8.705,8.705,0,0,0,2.758,2.9,7.924,7.924,0,0,0,4.413,1.141,8.243,8.243,0,0,0,4.543-1.141,7.849,7.849,0,0,0,2.758-2.9,12.665,12.665,0,0,0,1.346-3.96A23.606,23.606,0,0,0,41.8,57.307Z" transform="translate(11.171 25.287)" fill="#fff"/>
      <path id="Path-2" data-name="Path" d="M62.671,69.518A10.381,10.381,0,0,0,66.078,69a10.014,10.014,0,0,0,2.644-1.288,6.932,6.932,0,0,0,1.719-1.63,2.792,2.792,0,0,0,.617-1.565V40.77h.406c.081,0,.211-.016.373-.032a4.5,4.5,0,0,1,.454-.033,5.387,5.387,0,0,1,3.261.994c.892.668,1.346,1.874,1.346,3.618V73.527H71.058V70.545a12.123,12.123,0,0,1-3.845,2.787,14.4,14.4,0,0,1-6.376,1.222,12.625,12.625,0,0,1-6.181-1.239A8.088,8.088,0,0,1,51.4,70.137,10.469,10.469,0,0,1,50.13,65.9c-.13-1.548-.211-3.015-.211-4.449V40.77h.406c.1,0,.211-.016.373-.032s.308-.033.438-.033a5.477,5.477,0,0,1,3.261.962c.892.652,1.347,1.842,1.347,3.585V61.5a19.9,19.9,0,0,0,.373,4.286A3.861,3.861,0,0,0,57.658,68.2a6.181,6.181,0,0,0,2.223,1.043A12.179,12.179,0,0,0,62.671,69.518Z" transform="translate(31.524 25.414)" fill="#fff"/>
      <path id="Path-3" data-name="Path" d="M72.931,73.1a10,10,0,0,1-.584-2.868c-.065-1.027-.114-2.054-.114-3.064V34.9h.422c.1,0,.211-.016.373-.032s.308-.033.438-.033a5.518,5.518,0,0,1,3.229.962,3.992,3.992,0,0,1,1.379,3.487v5.476H88.295v5.036H78.074v17.8q0,5.647,4.461,5.655a5.777,5.777,0,0,0,2.06-.375,8.568,8.568,0,0,0,1.72-.9,11.539,11.539,0,0,0,1.266-.994,5.158,5.158,0,0,0,.649-.684,17.568,17.568,0,0,1,1.412,2,3.6,3.6,0,0,1,.584,1.858,2.155,2.155,0,0,1-.617,1.336,6.346,6.346,0,0,1-1.72,1.353,11.5,11.5,0,0,1-2.709,1.043,14.152,14.152,0,0,1-3.537.407,10.237,10.237,0,0,1-5.694-1.385A7.7,7.7,0,0,1,72.931,73.1Z" transform="translate(45.615 21.704)" fill="#fff"/>
      <path id="Path-4" data-name="Path" d="M86.672,40.77h.406c.1,0,.211-.016.373-.032a4.5,4.5,0,0,1,.454-.033,5.387,5.387,0,0,1,3.261.994c.892.668,1.346,1.874,1.346,3.618v22a5.024,5.024,0,0,0,.584,2.819c.389.554,1.3.831,2.709.831v2.477a8.986,8.986,0,0,1-1.671.342,15.424,15.424,0,0,1-2.093.147,6.145,6.145,0,0,1-3.05-.619,3.83,3.83,0,0,1-1.574-1.646,6.171,6.171,0,0,1-.617-2.314c-.065-.847-.1-1.695-.1-2.51V40.77Z" transform="translate(54.733 25.414)" fill="#fff"/>
      <path id="Shape-2" data-name="Shape" d="M125.148,57.307a25.548,25.548,0,0,1-.827,6.519,15.856,15.856,0,0,1-2.644,5.557,13.086,13.086,0,0,1-4.7,3.862,15.464,15.464,0,0,1-6.992,1.451,15.687,15.687,0,0,1-6.96-1.385A12.613,12.613,0,0,1,98.4,69.6a15.282,15.282,0,0,1-2.612-5.476,25.686,25.686,0,0,1-.828-6.584,22.289,22.289,0,0,1,.957-6.552A15.589,15.589,0,0,1,98.8,45.573a13.919,13.919,0,0,1,4.77-3.683,17.248,17.248,0,0,1,13.547,0,12.926,12.926,0,0,1,4.607,3.683,15.2,15.2,0,0,1,2.612,5.345A24.7,24.7,0,0,1,125.148,57.307Zm-6.116,0a24.8,24.8,0,0,0-.373-4.237,11.857,11.857,0,0,0-1.347-3.8,7.451,7.451,0,0,0-2.693-2.721,8.678,8.678,0,0,0-4.478-1.043,8.427,8.427,0,0,0-4.38,1.043,7.857,7.857,0,0,0-2.791,2.721,12.019,12.019,0,0,0-1.476,3.8,20.766,20.766,0,0,0-.454,4.237,26.706,26.706,0,0,0,.373,4.351,11.97,11.97,0,0,0,1.411,3.96,8.706,8.706,0,0,0,2.758,2.9A7.961,7.961,0,0,0,110,69.66a8.244,8.244,0,0,0,4.543-1.141,7.851,7.851,0,0,0,2.758-2.9,12.682,12.682,0,0,0,1.346-3.96A25.089,25.089,0,0,0,119.032,57.307Z" transform="translate(59.964 25.287)" fill="#fff"/>
      <path id="Path-5" data-name="Path" d="M118.472,41.042a5.245,5.245,0,0,1,2.856.8,3.57,3.57,0,0,1,1.541,2.722,14.3,14.3,0,0,1,4.283-2.819,15.275,15.275,0,0,1,6.424-1.239c3.115,0,5.5.684,7.139,2.07a9.486,9.486,0,0,1,3.229,5.166,14.446,14.446,0,0,1,.406,3.064c.049,1.124.065,2.216.065,3.276V73.669h-5.824V54.276c0-.864-.016-1.711-.032-2.51a7.779,7.779,0,0,0-.373-2.249,4.539,4.539,0,0,0-1.98-2.754,8.451,8.451,0,0,0-4.461-.961,11.189,11.189,0,0,0-6.246,1.548c-1.557,1.043-2.336,2.151-2.336,3.341V73.653h-5.84V41.107h.341c.1,0,.211-.016.373-.032A1.993,1.993,0,0,1,118.472,41.042Z" transform="translate(74.087 25.287)" fill="#fff"/>
      <path id="Path-6" data-name="Path" d="M157.639,42.359a5.677,5.677,0,0,1,1.849,1.418,2.275,2.275,0,0,1,.487,1.271,5.285,5.285,0,0,1-.373,1.76,16.676,16.676,0,0,1-.925,1.972l-.957.065a9.5,9.5,0,0,0-3.407-2.51,10.872,10.872,0,0,0-4.77-1.076,14.684,14.684,0,0,0-1.963.163,7.3,7.3,0,0,0-2,.619,4.026,4.026,0,0,0-1.541,1.271,3.629,3.629,0,0,0,1.346,5.248,24.517,24.517,0,0,0,4.835,1.662,31.243,31.243,0,0,1,3.975,1.206,13.284,13.284,0,0,1,3.391,1.858,8.057,8.057,0,0,1,2.336,2.869,9.568,9.568,0,0,1,.86,4.27,9.1,9.1,0,0,1-1.038,4.449,9.743,9.743,0,0,1-2.742,3.178,12.142,12.142,0,0,1-4.023,1.923,17.2,17.2,0,0,1-4.77.652,22.89,22.89,0,0,1-4.316-.375,16.907,16.907,0,0,1-3.229-.929,6.679,6.679,0,0,1-2.4-1.418,2.183,2.183,0,0,1-.681-1.483,4.313,4.313,0,0,1,.47-1.858c.325-.636.73-1.369,1.233-2.2.324.277.762.619,1.33,1.027a13.1,13.1,0,0,0,2.044,1.173,14.677,14.677,0,0,0,2.628.929,11.673,11.673,0,0,0,3.082.375,11.518,11.518,0,0,0,2.385-.244,6.589,6.589,0,0,0,2.093-.8,4.486,4.486,0,0,0,1.509-1.516,4.617,4.617,0,0,0,.584-2.412,4.28,4.28,0,0,0-.617-2.38,5,5,0,0,0-1.639-1.548,9.72,9.72,0,0,0-2.287-.994c-.844-.244-1.7-.473-2.564-.652a27.663,27.663,0,0,1-3.8-1.076,11.535,11.535,0,0,1-3.212-1.76,8.287,8.287,0,0,1-2.255-2.754,8.654,8.654,0,0,1-.86-4.009,8.335,8.335,0,0,1,.957-4.026,8.438,8.438,0,0,1,2.612-2.9,12.758,12.758,0,0,1,3.748-1.728,16.115,16.115,0,0,1,4.364-.587,18.985,18.985,0,0,1,4.77.554A14.142,14.142,0,0,1,157.639,42.359Z" transform="translate(86.884 25.275)" fill="#fff"/>
      <path id="Path-7" data-name="Path" d="M56.34,39.641a6.63,6.63,0,0,1-.649.684,9.864,9.864,0,0,1-1.266.994,8.152,8.152,0,0,1-1.72.9,5.443,5.443,0,0,1-2.06.375q-4.453,0-4.461-5.655V19.155H56.4V14.119H46.184V8.643c0-1.7-.454-2.852-1.379-3.488a5.518,5.518,0,0,0-3.229-.962,4.5,4.5,0,0,0-.454.033c-.162.016-.292.032-.373.032h-.406V36.528c0,1.01.032,2.037.1,3.064a9.994,9.994,0,0,0,.584,2.868,7.59,7.59,0,0,0,3.018,3.8,10.374,10.374,0,0,0,5.694,1.385,14.952,14.952,0,0,0,3.537-.407,10.84,10.84,0,0,0,2.709-1.043,6.285,6.285,0,0,0,1.72-1.353,2.192,2.192,0,0,0,.617-1.336,3.553,3.553,0,0,0-.584-1.858A19.615,19.615,0,0,0,56.34,39.641Z" transform="translate(25.476 2.357)" fill="#fff"/>
      <path id="Path-8" data-name="Path" d="M40.323,31.125V72.846c0,.831.032,1.662.1,2.51a6.249,6.249,0,0,0,.617,2.314,4.063,4.063,0,0,0,1.574,1.662,6.23,6.23,0,0,0,3.05.619,15.422,15.422,0,0,0,2.093-.146,10.86,10.86,0,0,0,1.687-.342V76.985a5.528,5.528,0,0,1-1.882-.244,1.922,1.922,0,0,1-.957-.717,2.64,2.64,0,0,1-.373-1.206c-.049-.489-.065-1.076-.065-1.76V35.2a7.951,7.951,0,0,0-.081-1.124,11.807,11.807,0,0,1-4.072-1.63A12.338,12.338,0,0,1,40.323,31.125Z" transform="translate(25.464 19.364)" fill="#fff"/>
      <path id="Path-9" data-name="Path" d="M1.168,10.412a5.242,5.242,0,0,1,2.855.8,3.568,3.568,0,0,1,1.541,2.721A14.643,14.643,0,0,1,9.848,11.1a15.226,15.226,0,0,1,6.425-1.239c3.115,0,5.5.684,7.138,2.07a9.521,9.521,0,0,1,3.229,5.166,15.551,15.551,0,0,1,.406,3.064c.049,1.124.065,2.216.065,3.276V43.023H21.269V23.645c0-.88-.016-1.711-.032-2.51a7.765,7.765,0,0,0-.373-2.249,4.559,4.559,0,0,0-2-2.754,8.449,8.449,0,0,0-4.462-.962A11.186,11.186,0,0,0,8.16,16.719C6.6,17.746,5.824,18.87,5.824,20.06V43.023H0V10.477H.341c.1,0,.211-.016.373-.033A2.3,2.3,0,0,1,1.168,10.412Z" transform="translate(0 5.934)" fill="#fff"/>
      <path id="Shape-3" data-name="Shape" d="M35.932,39.017A12.932,12.932,0,0,0,39.4,38.61a10.783,10.783,0,0,0,2.531-1.027,11.1,11.1,0,0,0,1.817-1.271,14.755,14.755,0,0,0,1.233-1.206,14.574,14.574,0,0,1,1.346,2.07,4.04,4.04,0,0,1,.584,1.728,2.353,2.353,0,0,1-.341,1.157,4.268,4.268,0,0,1-1.168,1.222,13.674,13.674,0,0,1-4.056,1.988,19.332,19.332,0,0,1-5.97.8A19.575,19.575,0,0,1,29.3,43.14a12.767,12.767,0,0,1-5-3,14.326,14.326,0,0,1-3.391-5.411,23.219,23.219,0,0,1-1.249-8.165,20.163,20.163,0,0,1,1.265-7.513,15.3,15.3,0,0,1,3.326-5.215,12.978,12.978,0,0,1,4.7-3,15.621,15.621,0,0,1,5.451-.961,14.041,14.041,0,0,1,6,1.173A11.2,11.2,0,0,1,44.5,14.2a13,13,0,0,1,2.336,4.547,17.957,17.957,0,0,1,.779,5.3c0,.652-.016,1.3-.032,1.972a16.746,16.746,0,0,1-.162,1.891H25.776a13.4,13.4,0,0,0,2.644,8.051C30.043,37.99,32.557,39.017,35.932,39.017ZM41.772,23.5a15.451,15.451,0,0,0-.373-3.455,7.818,7.818,0,0,0-1.266-2.787,6.038,6.038,0,0,0-2.352-1.89,8.481,8.481,0,0,0-3.585-.685,7.8,7.8,0,0,0-5.841,2.347,9.838,9.838,0,0,0-2.563,6.486h15.98Z" transform="translate(12.415 5.947)" fill="#fff"/>
      <path id="Shape-4" data-name="Shape" d="M113.5,26.677a25.456,25.456,0,0,1-.828,6.519,15.717,15.717,0,0,1-2.644,5.557,13.08,13.08,0,0,1-4.7,3.862,15.464,15.464,0,0,1-6.992,1.451,15.736,15.736,0,0,1-6.96-1.385,12.679,12.679,0,0,1-4.64-3.732,15.557,15.557,0,0,1-2.612-5.476,25.686,25.686,0,0,1-.827-6.584,22.289,22.289,0,0,1,.957-6.552,15.594,15.594,0,0,1,2.888-5.411,13.926,13.926,0,0,1,4.77-3.683,17.288,17.288,0,0,1,13.563,0,12.726,12.726,0,0,1,4.591,3.683,14.933,14.933,0,0,1,2.612,5.345A24.224,24.224,0,0,1,113.5,26.677Zm-6.117,0a24.766,24.766,0,0,0-.373-4.237,11.852,11.852,0,0,0-1.346-3.8,7.283,7.283,0,0,0-2.677-2.722,8.678,8.678,0,0,0-4.478-1.043,8.328,8.328,0,0,0-4.364,1.043,7.855,7.855,0,0,0-2.791,2.722,11.641,11.641,0,0,0-1.476,3.8,19.707,19.707,0,0,0-.454,4.237,26.737,26.737,0,0,0,.373,4.351,11.977,11.977,0,0,0,1.411,3.96,8.874,8.874,0,0,0,2.758,2.9A7.793,7.793,0,0,0,98.38,39.03a8.247,8.247,0,0,0,4.543-1.141,7.85,7.85,0,0,0,2.758-2.9,12.673,12.673,0,0,0,1.346-3.96A28.423,28.423,0,0,0,107.383,26.677Z" transform="translate(52.598 5.934)" fill="#fff"/>
      <path id="Path-10" data-name="Path" d="M106.68,10.406a5.207,5.207,0,0,1,2.856.8,3.524,3.524,0,0,1,1.541,2.656,10.2,10.2,0,0,1,2.888-2.721,7.913,7.913,0,0,1,4.462-1.271,9.827,9.827,0,0,1,1.622.147,8.316,8.316,0,0,1,1.606.44,3.244,3.244,0,0,1,1.233.864,2.088,2.088,0,0,1,.487,1.45,5.927,5.927,0,0,1-.552,2.38,13.727,13.727,0,0,1-1.1,2.1,6.108,6.108,0,0,0-4.543-1.728,6.869,6.869,0,0,0-2.239.375,6.387,6.387,0,0,0-1.882,1.043,5.052,5.052,0,0,0-1.3,1.483,3.337,3.337,0,0,0-.471,1.728v22.9h-5.84V10.471h.487a3.7,3.7,0,0,0,.422-.033A1.158,1.158,0,0,1,106.68,10.406Z" transform="translate(66.589 5.94)" fill="#fff"/>
      <path id="Shape-5" data-name="Shape" d="M119.03,49.135V.243h.422c.1,0,.211-.016.373-.032s.308-.032.438-.032a5.28,5.28,0,0,1,3.261.994c.893.668,1.347,1.874,1.347,3.618V49.135Zm7.414-16.965V29.888l11.811-11.8a5.807,5.807,0,0,1,3.926-1.793,3.625,3.625,0,0,1,1.363.244,8.826,8.826,0,0,1,1.1.521,5.187,5.187,0,0,1,1.038.685L132.512,30.784,147.73,49.07a9.812,9.812,0,0,1-3.439.619,6.6,6.6,0,0,1-5.143-2.477Z" transform="translate(75.167 -0.178)" fill="#fff"/>
      <path id="Path-11" data-name="Path" d="M56.34,39.641a6.63,6.63,0,0,1-.649.684,9.864,9.864,0,0,1-1.266.994,8.152,8.152,0,0,1-1.72.9,5.443,5.443,0,0,1-2.06.375q-4.453,0-4.461-5.655V19.155H56.4V14.119H46.184V8.643c0-1.7-.454-2.852-1.379-3.488a5.518,5.518,0,0,0-3.229-.962,4.5,4.5,0,0,0-.454.033c-.162.016-.292.032-.373.032h-.406V36.528c0,1.01.032,2.037.1,3.064a9.994,9.994,0,0,0,.584,2.868,7.59,7.59,0,0,0,3.018,3.8,10.374,10.374,0,0,0,5.694,1.385,14.952,14.952,0,0,0,3.537-.407,10.84,10.84,0,0,0,2.709-1.043,6.285,6.285,0,0,0,1.72-1.353,2.192,2.192,0,0,0,.617-1.336,3.553,3.553,0,0,0-.584-1.858A19.615,19.615,0,0,0,56.34,39.641Z" transform="translate(25.476 2.357)" fill="#fff"/>
      <path id="Path-12" data-name="Path" d="M88.811,43.092H82.971L76.514,26.338,69.44,43.092H64.216L53.022,10.676c.5-.131.99-.244,1.476-.343a7.662,7.662,0,0,1,1.541-.13c2.158,0,3.585,1.19,4.316,3.585L67.428,36.54l6.587-16.2-3.5-9.729a9,9,0,0,1,2.742-.407c2.06,0,3.472,1.108,4.251,3.308l8.242,23.093,5.63-21.855a9.541,9.541,0,0,1,1.444-3.21,3.4,3.4,0,0,1,2.953-1.353,7.823,7.823,0,0,1,2.823.554Z" transform="translate(33.483 6.142)" fill="#fff"/>
      <path id="Shape-6" data-name="Shape" d="M164.063,45.993a6.222,6.222,0,0,1-.373,2.135,5.92,5.92,0,0,1-1.055,1.776,5.109,5.109,0,0,1-1.655,1.206,5.235,5.235,0,0,1-2.174.44,5.383,5.383,0,0,1-2.239-.44,4.721,4.721,0,0,1-1.639-1.206,5.316,5.316,0,0,1-1.006-1.776,6.626,6.626,0,0,1-.357-2.135,6.119,6.119,0,0,1,.357-2.119,5.352,5.352,0,0,1,1.055-1.76,4.9,4.9,0,0,1,1.655-1.19,5.632,5.632,0,0,1,4.364,0,5.144,5.144,0,0,1,1.655,1.19,5.084,5.084,0,0,1,1.054,1.76A6.177,6.177,0,0,1,164.063,45.993Zm-.892,0a5.266,5.266,0,0,0-.292-1.76,4.933,4.933,0,0,0-.86-1.483,3.934,3.934,0,0,0-1.379-1.027,4.129,4.129,0,0,0-1.817-.391,4.143,4.143,0,0,0-3.18,1.418,4.494,4.494,0,0,0-.86,1.483,5.026,5.026,0,0,0-.308,1.76,5.435,5.435,0,0,0,.292,1.776,4.532,4.532,0,0,0,.844,1.5,4.055,4.055,0,0,0,1.346,1.043,4.174,4.174,0,0,0,1.85.391,4.129,4.129,0,0,0,1.817-.391A4.019,4.019,0,0,0,162,49.269a4.57,4.57,0,0,0,.86-1.5A5.051,5.051,0,0,0,163.171,45.993Zm-1.606,3a1.751,1.751,0,0,1-.779.212.986.986,0,0,1-.519-.13,1.034,1.034,0,0,1-.405-.391l-1.233-2h-.584v2.4h-1.3v-6.4c.276-.016.6-.049.973-.065s.7-.032.99-.032a2.857,2.857,0,0,1,1.963.554,1.8,1.8,0,0,1,.617,1.4,1.869,1.869,0,0,1-.114.7,1.7,1.7,0,0,1-.292.538,1.678,1.678,0,0,1-.422.407,3.573,3.573,0,0,1-.487.261Zm-1.687-4.368c0-.668-.389-1.01-1.2-1.01h-.357c-.1,0-.195.017-.276.017v2.037h.714a1.184,1.184,0,0,0,.86-.277A1.117,1.117,0,0,0,159.877,44.624Z" transform="translate(96.976 25.275)" fill="#fff"/>
    </g>
  </g>
</svg>
