<svg xmlns="http://www.w3.org/2000/svg" xmlns:xlink="http://www.w3.org/1999/xlink" width="233.891" height="76.254" viewBox="0 0 233.891 76.254">
  <defs>
    <clipPath id="clip-path">
      <path id="Clip_24" data-name="Clip 24" d="M0,0H43.414V54.37H0Z" transform="translate(0.044 0.172)" fill="none"/>
    </clipPath>
  </defs>
  <g id="Group_56" data-name="Group 56" transform="translate(0 -0.274)">
    <path id="Fill_1" data-name="Fill 1" d="M2.97,5.918A2.959,2.959,0,1,1,5.9,2.948,2.973,2.973,0,0,1,2.97,5.918Zm0-5.444a2.407,2.407,0,0,0-2.5,2.475,2.416,2.416,0,0,0,2.5,2.494A2.4,2.4,0,0,0,5.45,2.948,2.4,2.4,0,0,0,2.97.473ZM2.291,4.627H1.845V1.243H3.3c.827,0,1.2.291,1.2.943,0,.563-.342.868-1.045.934l.983,1.5-.469,0L3.012,3.12H2.291V4.626Zm0-3V2.738h.851a1.5,1.5,0,0,0,.6-.088.475.475,0,0,0,.283-.479c0-.477-.411-.541-.814-.541Z" transform="translate(175.464 48.405)" fill="#0090cb"/>
    <path id="Fill_3" data-name="Fill 3" d="M5.1,0a.255.255,0,0,0-.209.118L0,7.61A12.449,12.449,0,0,0,5.109,8.7a12.472,12.472,0,0,0,5.1-1.091L5.306.118A.247.247,0,0,0,5.1,0" transform="translate(152.265 31.425)" fill="#0090cb"/>
    <path id="Fill_5" data-name="Fill 5" d="M6.679,3.9A12.588,12.588,0,0,0,.632,0,3.2,3.2,0,0,1,.073,3.592a.171.171,0,0,0,.045.3Z" transform="translate(160.223 15.517)" fill="#0090cb"/>
    <path id="Fill_7" data-name="Fill 7" d="M6.057,0A12.676,12.676,0,0,0,0,3.9H6.566c.109-.027.164-.177.051-.3A3.208,3.208,0,0,1,6.057,0" transform="translate(147.826 15.516)" fill="#0090cb"/>
    <path id="Fill_9" data-name="Fill 9" d="M.508.679c-.539.039-.569.269-.451.573l5.189,9.9a12.516,12.516,0,0,0,3.03-8.182A12.257,12.257,0,0,0,7.914,0Z" transform="translate(161.651 24.593)" fill="#0090cb"/>
    <path id="Fill_11" data-name="Fill 11" d="M38.286,53.094H14.765V38.339H0V14.749H14.765V0H38.286V14.749H53.043v23.59H38.286V53.093ZM18.552,38.754h0a14.481,14.481,0,0,0,16,0l.021.024V38.74a.028.028,0,0,0-.02.013l-7.09-10.6a1.147,1.147,0,0,0-.913-.535,1.121,1.121,0,0,0-.9.535l-7.1,10.6Zm-5.634-17.3a14.555,14.555,0,0,0,4.638,16.593v.037l6.7-12.6a2.471,2.471,0,0,0-.032-2.117,1.962,1.962,0,0,0-1.539-.976l-9.771-.941Zm27.291,0-9.784.941a1.957,1.957,0,0,0-1.536.982,2.456,2.456,0,0,0-.028,2.111l6.7,12.6-.006-.037A14.634,14.634,0,0,0,40.208,21.45h0ZM26.549,13.874a1.75,1.75,0,0,1,1.607,1,1.9,1.9,0,0,1-.143,1.944,2.5,2.5,0,0,0-.783,2c.026.631.624,1.579,2.163,1.606H39.766a14.576,14.576,0,0,0-26.423,0H23.719c1.539-.026,2.134-.974,2.159-1.606.039-.836-.105-1.107-.793-2a1.919,1.919,0,0,1-.124-1.953A1.739,1.739,0,0,1,26.549,13.874Z" transform="translate(130.809 0.991)" fill="#0090cb"/>
    <path id="Fill_13" data-name="Fill 13" d="M7.762.679.355,0A12.255,12.255,0,0,0,0,2.974a12.518,12.518,0,0,0,3.022,8.182l5.195-9.9c.118-.3.066-.534-.455-.573" transform="translate(144.819 24.593)" fill="#0090cb"/>
    <path id="Fill_15" data-name="Fill 15" d="M2.956,5.918A2.951,2.951,0,0,1,0,2.948,2.951,2.951,0,1,1,2.956,5.918Zm0-5.444a2.4,2.4,0,0,0-2.5,2.475,2.414,2.414,0,0,0,2.5,2.494,2.41,2.41,0,0,0,2.49-2.494A2.4,2.4,0,0,0,2.956.473ZM2.291,4.627H1.858V1.243H3.308c.817,0,1.182.291,1.182.943,0,.564-.347.87-1.061.934l1.01,1.5-.486,0L3.009,3.12H2.291V4.626Zm0-3V2.738h.846a1.456,1.456,0,0,0,.591-.088.476.476,0,0,0,.278-.479c0-.475-.38-.541-.79-.541Z" transform="translate(226.144 48.405)" fill="#0090cb"/>
    <path id="Fill_17" data-name="Fill 17" d="M.5.231C.77.448.7.8,1.132.737c.194-.027.325-.178.507-.3a.648.648,0,0,1,.308.04A2.814,2.814,0,0,0,0,0C.148.27.313.12.5.231" transform="translate(208.899 14.74)" fill="#0090cb"/>
    <path id="Fill_19" data-name="Fill 19" d="M15.835,39.338h0a31.025,31.025,0,0,1-8.5-8.5A41.582,41.582,0,0,1,1.164,17.026C.255,13.272-.949,6.067,1.206,0A63.761,63.761,0,0,0,8.552,1.566a63.692,63.692,0,0,0,7.269.586h.039a63.163,63.163,0,0,0,7.257-.586A64.814,64.814,0,0,0,30.486,0c2.135,6.076.927,13.275.017,17.026a41.551,41.551,0,0,1-6.166,13.809,30.972,30.972,0,0,1-8.5,8.5Zm-.582-9.38h0c0,.039.1,3.974.158,6.035.02.442.2.622.611.622l.069,0c.574,0,.652-.263.652-.519.006-.288.025-.979.047-1.779v-.008c.029-1.05.065-2.358.084-3.222a.207.207,0,0,0-.05-.185.506.506,0,0,1-.043-.064,4.725,4.725,0,0,0-.551-.438c-.047-.033-.085-.06-.106-.077a5.406,5.406,0,0,0-.872-.363ZM14.7,32a1.914,1.914,0,0,0-.491.375l-.008.008a1.975,1.975,0,0,0-.631,1.73,2.59,2.59,0,0,0,.361,1.161l0,.005L14,35.4c.085.169.2.274.3.274s.174-.1.212-.274a.7.7,0,0,0-.036-.353,1.562,1.562,0,0,1-.057-.68c.078-.533.351-.649.354-.65L14.7,32Zm-.344-7.556a3.427,3.427,0,0,0-.793.35l-.022.013a2.279,2.279,0,0,0-1,.94,2.175,2.175,0,0,0,1.282,3.035c.365.163.822.316,1.263.463.255.085.5.166.716.247a4.528,4.528,0,0,1,1.782,1.278.405.405,0,0,1-.131.355L17.4,32.684a2.843,2.843,0,0,0,1.048-.539,1.936,1.936,0,0,0,.761-1.618c0-.84-.4-1.357-1.587-2.048a23.146,23.146,0,0,0-2.483-1.187c-.215-.092-.418-.18-.6-.262a.449.449,0,0,1-.269-.539.413.413,0,0,1,.234-.224Zm.709-.922.187,3,.839.4.842.455.059-3.639c-.4-.05-.666-.079-.979-.112C15.757,23.6,15.467,23.57,15.065,23.522Zm-2-6.173c-.107.047-.218.092-.336.141-.842.346-1.886.776-1.956,1.86-.1,1.692,1.085,2.91,3.181,3.258.943.158,1.836.265,2.782.378l.358.043a2.768,2.768,0,0,1,.715.145.553.553,0,0,1,.305.375.428.428,0,0,1-.125.427.545.545,0,0,1-.263.184l-.072,2.2a3.645,3.645,0,0,0,1.471-.466,2.543,2.543,0,0,0,1.251-1.594,2.4,2.4,0,0,0-.489-2.1,3.391,3.391,0,0,0-1.6-1.055,27.208,27.208,0,0,0-4.033-.716l-.061-.008c-.237-.04-.525-.184-.556-.46-.042-.339.371-.413.375-.414s-.094-.33-.269-.812A9.608,9.608,0,0,0,13.063,17.349Zm1.194-1.778h0l.016.336c-.006,0-.59.153-.655.29l-.014.018a.282.282,0,0,0-.011.372c.081.152.158.293.231.426a7.433,7.433,0,0,1,.977,2.608c.833.1,1.421.205,2.309.367l.12-4a4.471,4.471,0,0,0-1.409-.3c-1.084-.078-1.56-.119-1.564-.12ZM12,5.392a4.7,4.7,0,0,0-2.2.525A4.2,4.2,0,0,0,7.984,11.4a5.641,5.641,0,0,0,4.066,2.908,19.031,19.031,0,0,0,2.567.448l.438.041a16.4,16.4,0,0,1,2.663.394,1.1,1.1,0,0,1,.694.439.834.834,0,0,1,.047.66.781.781,0,0,1-.458.441c-.019.9-.129,2.75-.134,2.829a5.248,5.248,0,0,0,3.239-1.692,3.4,3.4,0,0,0,.508-2.77A3.83,3.83,0,0,0,19.6,12.781a11.012,11.012,0,0,0-4.016-.943,14.75,14.75,0,0,1-2.949-.51c-.684-.232-1.429-.542-1.614-1.278-.083-.332-.161-.921.238-1.145a.655.655,0,0,1,.34-.1,1.634,1.634,0,0,1,.64.2,3.983,3.983,0,0,0,.772.285,4.11,4.11,0,0,0,.742.069,3.051,3.051,0,0,0,.762-.089l.084-.026c.169-.051.361-.108.4-.237,0-.115-.191-.187-.331-.24-.036-.014-.067-.026-.091-.036a2.008,2.008,0,0,0-.379-.121,2.154,2.154,0,0,1-.373-.117A7.648,7.648,0,0,1,12.8,7.962c-.131-.077-.266-.156-.4-.23a6.723,6.723,0,0,1,1.094-.082,5.082,5.082,0,0,1,.517.023,5.506,5.506,0,0,0,.607.026,6.006,6.006,0,0,0,1.151-.084c.047-.011.142-.046.164-.1a.091.091,0,0,0-.019-.088.876.876,0,0,0-.261-.285,1.351,1.351,0,0,1-.22-.208l-.112-.157a2.147,2.147,0,0,0-.974-.907A6.433,6.433,0,0,0,12,5.392ZM14.776,8.4h0a2.066,2.066,0,0,1,.635.275.476.476,0,0,1,.17.382c-.12.754-1.377.769-1.39.77l.059,1.075c.467.1,1,.15,1.556.207a19.727,19.727,0,0,1,1.958.267s.012-.022.029-.053c.058-.1.178-.319.234-.407a3.351,3.351,0,0,1,.828-.867c.146-.119.3-.242.449-.386.443-.43.9-.806,1.306-1.137.268-.22.522-.427.748-.631.057-.052.107-.093.151-.129a.827.827,0,0,0,.34-.531.861.861,0,0,0-.141-.792,1.451,1.451,0,0,0-1.039-.558.492.492,0,0,0-.179.029,4.972,4.972,0,0,0-1.28.885,6.251,6.251,0,0,1-1.124.824.483.483,0,0,1-.155.032.164.164,0,0,1-.165-.117,3.264,3.264,0,0,1-.007-.886A4.625,4.625,0,0,0,17.743,5.5l-.01-.043c-.059-.255-.07-.3-.27-.444A7.761,7.761,0,0,1,14.986,4a.637.637,0,0,0-.25-.04.655.655,0,0,0-.552.212,2.182,2.182,0,0,0-.076.967h0a3.85,3.85,0,0,1,1.257.735,2.345,2.345,0,0,1,.443.577,2.922,2.922,0,0,0,.166.253,3.208,3.208,0,0,0,.279.312c.041.042.082.084.123.128.214.228.307.467.242.625a1.21,1.21,0,0,1-.7.259c-.633.043-1.131.057-1.2.058L14.8,8.1a18.646,18.646,0,0,1,1.96.321,1.082,1.082,0,0,1,.625.342c.075.093.231.455.177.559A10.031,10.031,0,0,0,14.776,8.4Z" transform="translate(196.346 8.685)" fill="#0090cb"/>
    <path id="Fill_21" data-name="Fill 21" d="M.151.144S.14.137.137.13.13.144.123.144Z" transform="translate(212.043 47.893)" fill="#0090cb"/>
    <g id="Group_25" data-name="Group 25" transform="translate(190.433 0.102)">
      <path id="Clip_24-2" data-name="Clip 24" d="M0,0H43.414V54.37H0Z" transform="translate(0.044 0.172)" fill="none"/>
      <g id="Group_25-2" data-name="Group 25" clip-path="url(#clip-path)">
        <path id="Fill_23" data-name="Fill 23" d="M21.717,54.37h0A39.949,39.949,0,0,1,9.307,43.735a45.336,45.336,0,0,1-7.151-13.79A46.182,46.182,0,0,1,.039,13.966,34.819,34.819,0,0,1,3.273,0,39.316,39.316,0,0,0,21.517,4.561h.2A40.028,40.028,0,0,0,40.122.027a34.657,34.657,0,0,1,3.252,13.952,46.244,46.244,0,0,1-2.1,15.965,45.572,45.572,0,0,1-7.151,13.79,39.87,39.87,0,0,1-12.4,10.635ZM5.632,5.773C3.075,12,3.214,20.6,6,28.775c3.307,9.757,8.3,16.443,15.7,21.04l0,0h0a.061.061,0,0,0-.016.012h.041a.037.037,0,0,0-.023-.014c7.391-4.591,12.383-11.276,15.71-21.04,2.782-8.187,2.92-16.786.37-23A46.678,46.678,0,0,1,28.855,8.01a46.973,46.973,0,0,1-7.124.587H21.69a46.838,46.838,0,0,1-7.123-.587A46.263,46.263,0,0,1,5.632,5.773Z" transform="translate(0.044 0.172)" fill="#0090cb"/>
      </g>
    </g>
    <path id="Fill_26" data-name="Fill 26" d="M5.189,0a.718.718,0,0,1,.477.195A.7.7,0,0,1,5.929.73a.707.707,0,0,1-.263.545.7.7,0,0,1-.477.2,3.657,3.657,0,0,0-3.709,3.7v.039H4.351a.7.7,0,0,1,.516.214.742.742,0,0,1,.2.516.721.721,0,0,1-.2.516.7.7,0,0,1-.516.214H1.479v6.433a.693.693,0,0,1-.2.526.726.726,0,0,1-.535.214.7.7,0,0,1-.515-.214A.719.719,0,0,1,0,13.109V5.022A5.22,5.22,0,0,1,.434,3.075,5.263,5.263,0,0,1,1.568,1.46,5.043,5.043,0,0,1,5.189,0" transform="translate(23.114 62.601)" fill="#0090cb"/>
    <path id="Fill_28" data-name="Fill 28" d="M4.964,9.927a4.8,4.8,0,0,1-3.5-1.46A4.756,4.756,0,0,1,0,4.964a4.8,4.8,0,0,1,1.46-3.5A4.8,4.8,0,0,1,4.964,0a4.732,4.732,0,0,1,3.5,1.46,4.784,4.784,0,0,1,1.47,3.5,4.741,4.741,0,0,1-1.47,3.5A4.732,4.732,0,0,1,4.964,9.927Zm0-8.476A3.405,3.405,0,0,0,2.472,2.472,3.468,3.468,0,0,0,1.44,4.964,3.451,3.451,0,0,0,2.472,7.456,3.408,3.408,0,0,0,4.964,8.477,3.488,3.488,0,0,0,8.479,4.964,3.448,3.448,0,0,0,7.457,2.472,3.409,3.409,0,0,0,4.964,1.451Z" transform="translate(29.612 66.484)" fill="#0090cb"/>
    <path id="Fill_30" data-name="Fill 30" d="M4.109,0A3.914,3.914,0,0,1,6.99,1.207a3.876,3.876,0,0,1,1.217,2.9.686.686,0,0,1-.224.5.694.694,0,0,1-.507.214.758.758,0,0,1-.5-.176.864.864,0,0,1-.214-.535,2.585,2.585,0,0,0-.789-1.9,2.747,2.747,0,0,0-.852-.574,2.6,2.6,0,0,0-1.017-.194A2.556,2.556,0,0,0,2.23,2.21a2.585,2.585,0,0,0-.789,1.9V9.314a.642.642,0,0,1-.2.516.7.7,0,0,1-.507.214A.675.675,0,0,1,.195,9.82a.791.791,0,0,1-.141-.229A.728.728,0,0,1,0,9.314V4.039A3.9,3.9,0,0,1,1.228,1.187,3.944,3.944,0,0,1,4.109,0" transform="translate(41.613 66.484)" fill="#0090cb"/>
    <path id="Fill_32" data-name="Fill 32" d="M4.1,3.815A3.854,3.854,0,0,1,6.971,5.041,3.841,3.841,0,0,1,8.187,7.912v5.216a.636.636,0,0,1-.214.506.716.716,0,0,1-1.227-.506V7.912a2.55,2.55,0,0,0-.778-1.869A2.55,2.55,0,0,0,4.1,5.265a2.506,2.506,0,0,0-1.869.778,2.491,2.491,0,0,0-.789,1.869v5.216a.715.715,0,0,1-.185.5.671.671,0,0,1-.535.224A.806.806,0,0,1,.448,13.8.613.613,0,0,1,.2,13.635a.587.587,0,0,1-.151-.224A.762.762,0,0,1,0,13.128V.71A.913.913,0,0,1,.044.423.505.505,0,0,1,.225.185L.2.195A.529.529,0,0,1,.443.039.98.98,0,0,1,.721,0a.688.688,0,0,1,.535.214.739.739,0,0,1,.185.5V4.8c.1-.084.21-.164.321-.238s.21-.138.3-.19a4.51,4.51,0,0,1,.988-.409A3.872,3.872,0,0,1,4.1,3.815" transform="translate(56.005 62.602)" fill="#0090cb"/>
    <path id="Fill_34" data-name="Fill 34" d="M4.973,9.956A4.882,4.882,0,0,1,1.451,8.5,4.906,4.906,0,0,1,0,4.982V4.837A4.88,4.88,0,0,1,1.508,1.4,4.856,4.856,0,0,1,4.973,0,4.864,4.864,0,0,1,8.46,1.4,5.222,5.222,0,0,1,9.55,2.968a4.851,4.851,0,0,1,.4,1.887v.02c0,.023,0,.051,0,.088a.385.385,0,0,1-.035.116l.01-.009a.655.655,0,0,1-.69.526H1.508a3.289,3.289,0,0,0,.341,1.031,3.425,3.425,0,0,0,.691.886,3.343,3.343,0,0,0,2.433.993,3.414,3.414,0,0,0,.848-.1,4.188,4.188,0,0,0,.8-.3h-.01A3.519,3.519,0,0,0,7.3,7.629a3.437,3.437,0,0,0,.574-.652.778.778,0,0,1,.487-.3H8.47a.777.777,0,0,1,.4.116.689.689,0,0,1,.32.467.125.125,0,0,1,.015.068.453.453,0,0,0,0,.078.718.718,0,0,1-.137.419,5.145,5.145,0,0,1-.8.876,5.4,5.4,0,0,1-.984.681A4.948,4.948,0,0,1,4.973,9.956ZM2.6,2.374h0A3.5,3.5,0,0,0,1.538,4.155H8.4A3.594,3.594,0,0,0,8,3.182a4.025,4.025,0,0,0-.643-.817,3.723,3.723,0,0,0-1.1-.677,3.509,3.509,0,0,0-3.656.7Z" transform="translate(66.228 66.533)" fill="#0090cb"/>
    <path id="Fill_36" data-name="Fill 36" d="M9.229,9.957a.768.768,0,0,1-.535-.2A.751.751,0,0,1,8.5,9.236V8.487a5.969,5.969,0,0,1-.473.4c-.181.138-.335.246-.472.33a4.84,4.84,0,0,1-2.59.73A4.814,4.814,0,0,1,1.451,8.487,4.871,4.871,0,0,1,0,4.973,4.871,4.871,0,0,1,1.451,1.46,4.814,4.814,0,0,1,4.965,0,4.826,4.826,0,0,1,8.49,1.46,4.87,4.87,0,0,1,9.94,4.973V9.236a.716.716,0,0,1-.71.721ZM4.965,1.451A3.43,3.43,0,0,0,2.472,2.472a3.531,3.531,0,0,0-1.031,2.5A3.477,3.477,0,0,0,2.472,7.465,3.414,3.414,0,0,0,4.965,8.5a3.4,3.4,0,0,0,2.5-1.031A3.427,3.427,0,0,0,8.5,4.973a3.48,3.48,0,0,0-1.033-2.5A3.413,3.413,0,0,0,4.965,1.451Z" transform="translate(77.772 66.514)" fill="#0090cb"/>
    <path id="Fill_38" data-name="Fill 38" d="M5.159,12.331a.742.742,0,0,1,.488.224.656.656,0,0,1,.223.506.68.68,0,0,1-.223.526.7.7,0,0,1-.507.214H5.091a4.905,4.905,0,0,1-3.553-1.47A5.025,5.025,0,0,1,0,8.759V.73A.705.705,0,0,1,.214.214.784.784,0,0,1,.74,0a.747.747,0,0,1,.516.214A.772.772,0,0,1,1.47.73V8.652a3.661,3.661,0,0,0,.263,1.386,3.856,3.856,0,0,0,.749,1.173c.045.039.091.08.136.122a1.316,1.316,0,0,1,.117.122.5.5,0,0,0,.136.127c.013.013.021.023.021.029a.376.376,0,0,0,.1.058.951.951,0,0,0,.087.064l.068.044c.053.033.1.062.146.088a.883.883,0,0,1,.117.078c.085.033.171.063.258.093s.173.06.258.093c.117.026.231.052.341.078s.221.055.331.088Z" transform="translate(89.948 62.65)" fill="#0090cb"/>
    <path id="Fill_40" data-name="Fill 40" d="M5.159,12.379a.708.708,0,0,1,.516.224.656.656,0,0,1,.224.506.719.719,0,0,1-.224.526.706.706,0,0,1-.516.214,4.962,4.962,0,0,1-3.6-1.47A5.35,5.35,0,0,1,.433,10.758,5.232,5.232,0,0,1,0,8.807V.73A.763.763,0,0,1,.224.2.718.718,0,0,1,.74,0a.755.755,0,0,1,.526.2.71.71,0,0,1,.2.526V3.8H4.332a.769.769,0,0,1,.526.223.7.7,0,0,1,.2.516.745.745,0,0,1-.2.535.829.829,0,0,1-.526.195H1.47V8.72a3.6,3.6,0,0,0,1.09,2.589,3.56,3.56,0,0,0,2.6,1.071" transform="translate(96.677 62.602)" fill="#0090cb"/>
    <path id="Fill_42" data-name="Fill 42" d="M4.1,3.815A3.854,3.854,0,0,1,6.971,5.041,3.841,3.841,0,0,1,8.187,7.912v5.216a.636.636,0,0,1-.214.506.716.716,0,0,1-1.227-.506V7.912a2.55,2.55,0,0,0-.778-1.869A2.55,2.55,0,0,0,4.1,5.265a2.506,2.506,0,0,0-1.869.778,2.492,2.492,0,0,0-.789,1.869v5.216a.715.715,0,0,1-.185.5.671.671,0,0,1-.535.224A.807.807,0,0,1,.448,13.8.615.615,0,0,1,.2,13.635a.587.587,0,0,1-.151-.224A.762.762,0,0,1,0,13.128V.71A.913.913,0,0,1,.044.423.507.507,0,0,1,.225.185L.2.195A.531.531,0,0,1,.443.039.98.98,0,0,1,.721,0a.688.688,0,0,1,.535.214.739.739,0,0,1,.185.5V4.8c.1-.084.21-.164.321-.238s.21-.138.3-.19a4.516,4.516,0,0,1,.988-.409A3.874,3.874,0,0,1,4.1,3.815" transform="translate(104.152 62.602)" fill="#0090cb"/>
    <path id="Fill_44" data-name="Fill 44" d="M16.869,40.305c-8.776,0-12.047-7.574-12.047-12.348V17.187h9.425a2.41,2.41,0,1,0,0-4.821H4.822V2.41A2.411,2.411,0,0,0,0,2.41V27.957c0,7.129,5.234,17.169,16.869,17.169a2.41,2.41,0,1,0,0-4.821" transform="translate(0 8.76)" fill="#0090cb"/>
    <path id="Fill_46" data-name="Fill 46" d="M13.025,0A13.049,13.049,0,0,0,0,12.715v17.4a2.411,2.411,0,0,0,4.822,0v-17.4a8.282,8.282,0,0,1,8.2-7.894,8.8,8.8,0,0,1,9.119,8.43,2.411,2.411,0,0,0,4.822,0C26.965,5.945,20.712,0,13.025,0" transform="translate(22.834 21.356)" fill="#0090cb"/>
    <path id="Fill_48" data-name="Fill 48" d="M24.618.056a2.41,2.41,0,0,0-2.411,2.41V19.184c0,6.977-6.417,8.5-8.891,8.5a8.384,8.384,0,0,1-8.494-8.561V2.41A2.411,2.411,0,0,0,0,2.41V19.127c0,9.231,7.787,13.382,13.316,13.382,6.648,0,13.713-4.67,13.713-13.326V2.467A2.41,2.41,0,0,0,24.618.056" transform="translate(53.118 21.375)" fill="#0090cb"/>
    <path id="Fill_50" data-name="Fill 50" d="M16.689,40.151A11.6,11.6,0,0,1,4.822,28.591V2.41A2.411,2.411,0,0,0,0,2.41v26.18C0,38.709,8.663,44.972,16.689,44.972a2.41,2.41,0,1,0,0-4.821" transform="translate(84.772 8.99)" fill="#0090cb"/>
    <path id="Fill_52" data-name="Fill 52" d="M2.411,0A2.41,2.41,0,0,0,0,2.41V5.918a2.411,2.411,0,0,0,4.822,0V2.41A2.41,2.41,0,0,0,2.411,0" transform="translate(107.3 8.738)" fill="#0090cb"/>
    <path id="Fill_54" data-name="Fill 54" d="M2.411,0A2.41,2.41,0,0,0,0,2.41V30.823a2.411,2.411,0,0,0,4.822,0V2.41A2.41,2.41,0,0,0,2.411,0" transform="translate(107.3 20.669)" fill="#0090cb"/>
  </g>
</svg>
