<svg xmlns="http://www.w3.org/2000/svg" xmlns:xlink="http://www.w3.org/1999/xlink" width="380.212" height="71" viewBox="0 0 380.212 71">
  <defs>
    <clipPath id="clip-path">
      <rect id="Rectangle_20" data-name="Rectangle 20" width="380.212" height="71" fill="#fff"/>
    </clipPath>
  </defs>
  <g id="_1605898468526" data-name="1605898468526" clip-path="url(#clip-path)">
    <path id="Path_5" data-name="Path 5" d="M14.376,55.643.411,14.128A8.982,8.982,0,0,1,0,12.075,3.482,3.482,0,0,1,3.423,8.554c1.78,0,2.875,1.174,3.423,3.081l11.638,36.82L30.121,11.488c.548-1.76,1.643-2.934,3.423-2.934h.411c1.917,0,3.012,1.174,3.56,2.934L48.879,48.455,60.653,11.341a3.347,3.347,0,0,1,3.286-2.787,3.449,3.449,0,0,1,3.423,3.374,8.988,8.988,0,0,1-.411,2.054l-14.1,41.661c-.685,2.2-2.191,3.374-3.7,3.374h-.274c-1.78,0-3.149-1.174-3.7-3.374l-11.5-35.793L22.18,55.643c-.685,2.2-1.917,3.374-3.7,3.374h-.137C16.567,59.017,15.061,57.843,14.376,55.643Z" transform="translate(0 11.69)" fill="#fff"/>
    <path id="Path_6" data-name="Path 6" d="M53.237,59.564c-12.6,0-22.865-10.415-22.865-25.525v-.147c0-14.229,9.31-25.525,22.043-25.525,13.555,0,21.359,11.882,21.359,24.938a3.209,3.209,0,0,1-3.149,3.374H37.355c.958,10.709,7.941,16.577,16.156,16.577a18.3,18.3,0,0,0,13.281-5.721,2.979,2.979,0,0,1,1.917-.88,3.075,3.075,0,0,1,1.917,5.428A22.579,22.579,0,0,1,53.237,59.564ZM66.791,31.106c-.685-8.948-5.476-16.723-14.65-16.723-7.941,0-13.965,7.188-14.924,16.723Z" transform="translate(41.509 11.436)" fill="#fff"/>
    <path id="Path_7" data-name="Path 7" d="M52.471,3.667a3.431,3.431,0,1,1,6.846,0V30.512c3.7-5.868,9.173-11,17.525-11,10.953,0,21.906,9.388,21.906,25.525v.147c0,16.136-10.816,25.525-21.906,25.525-8.489,0-13.965-4.988-17.525-10.415v6.161a3.434,3.434,0,0,1-3.423,3.667,3.61,3.61,0,0,1-3.423-3.667ZM91.765,45.475v-.147c0-11.589-7.393-19.07-16.156-19.07-8.489,0-16.567,7.775-16.567,18.924v.147c0,11.442,8.078,19.07,16.567,19.07C84.509,64.4,91.765,57.357,91.765,45.475Z" transform="translate(71.71)" fill="#fff"/>
    <path id="Path_8" data-name="Path 8" d="M80.818,34.124v-.147c0-13.936,10.131-25.671,23.549-25.671,7.667,0,12.733,3.081,16.84,7.188a3.467,3.467,0,0,1,1.1,2.494,3.363,3.363,0,0,1-3.286,3.521,3.732,3.732,0,0,1-2.191-.88c-3.286-3.227-6.983-5.868-12.459-5.868-9.31,0-16.43,8.508-16.43,19.07v.147c0,10.709,7.256,19.07,16.84,19.07,5.2,0,9.447-2.64,12.733-6.015a2.692,2.692,0,0,1,1.917-.88,3.4,3.4,0,0,1,3.149,3.374,4.337,4.337,0,0,1-.821,2.347c-4.381,4.694-9.584,7.921-17.251,7.921C90.95,59.649,80.818,47.913,80.818,34.124Z" transform="translate(110.452 11.351)" fill="#fff"/>
    <path id="Path_9" data-name="Path 9" d="M100.95,34.124v-.147c0-13.936,10.132-25.671,23.96-25.671,13.691,0,23.823,11.589,23.823,25.525v.147c0,13.936-10.269,25.671-24.1,25.671C110.944,59.649,100.95,48.06,100.95,34.124Zm40.8,0v-.147c0-10.562-7.393-19.217-16.978-19.217-9.994,0-16.839,8.655-16.839,19.07v.147c0,10.562,7.256,19.07,16.976,19.07C134.767,53.048,141.751,44.539,141.751,34.124Z" transform="translate(137.965 11.351)" fill="#fff"/>
    <path id="Path_10" data-name="Path 10" d="M124.843,12.645a3.43,3.43,0,1,1,6.844,0v4.988c3.013-4.841,7.121-9.388,14.787-9.388,7.393,0,12.186,4.254,14.787,9.828,3.287-5.428,8.215-9.828,16.157-9.828,10.541,0,16.976,7.628,16.976,19.8V55.48a3.43,3.43,0,1,1-6.844,0V29.955c0-9.535-4.383-14.816-11.911-14.816-6.984,0-12.6,5.574-12.6,15.256V55.773a3.43,3.43,0,1,1-6.844,0V29.661c0-9.242-4.518-14.669-11.774-14.669s-12.735,6.455-12.735,15.549V55.626a3.433,3.433,0,0,1-3.422,3.667,3.516,3.516,0,0,1-3.422-3.667Z" transform="translate(170.619 11.267)" fill="#fff"/>
    <path id="Path_11" data-name="Path 11" d="M79.4,36.082a5.256,5.256,0,0,0,5.066-5.428,5.078,5.078,0,1,0-10.132,0A5.256,5.256,0,0,0,79.4,36.082Z" transform="translate(101.597 34.477)" fill="#fff"/>
    <path id="Path_12" data-name="Path 12" d="M156.372,13.734a5.353,5.353,0,0,1,.684-2.641,6.649,6.649,0,0,1,1.917-2.054,5.369,5.369,0,0,1,2.6-.733,4.5,4.5,0,0,1,2.466.733,6.645,6.645,0,0,1,1.917,2.054,6.426,6.426,0,0,1,.684,2.787,5.806,5.806,0,0,1-.684,2.64,8.216,8.216,0,0,1-1.78,2.054,4.983,4.983,0,0,1-5.2,0,4.231,4.231,0,0,1-1.78-2.054A5.885,5.885,0,0,1,156.372,13.734Zm.821,0a4.539,4.539,0,0,0,.549,2.347,4.894,4.894,0,0,0,1.642,1.76,4.38,4.38,0,0,0,4.381,0,4.894,4.894,0,0,0,1.642-1.76,4.539,4.539,0,0,0,.549-2.347,4.539,4.539,0,0,0-.549-2.347,4.895,4.895,0,0,0-1.642-1.76,4.382,4.382,0,0,0-4.381,0,4.894,4.894,0,0,0-1.642,1.76A4.539,4.539,0,0,0,157.193,13.734Zm6.3-1.32a2.228,2.228,0,0,1-.272,1.027.929.929,0,0,1-.821.587l1.642,2.787h-1.1l-1.37-2.494h-.959v2.494h-.956V10.36h1.78a2.773,2.773,0,0,1,1.642.44C163.491,11.093,163.491,11.68,163.491,12.413Zm-2.876,1.027h.686a1.115,1.115,0,0,0,.821-.293c.275-.147.275-.44.275-.734a1.162,1.162,0,0,0-.275-.733,1.526,1.526,0,0,0-.958-.293h-.684V13.44Z" transform="translate(213.708 11.351)" fill="#fff"/>
  </g>
</svg>
