<svg id="register-logo" xmlns="http://www.w3.org/2000/svg" width="333.24" height="54.537" viewBox="0 0 333.24 54.537">
  <path id="Path_13" data-name="Path 13" d="M.047,13.171a5.449,5.449,0,0,1,.205-2.348A5.625,5.625,0,0,1,1.435,8.754a4.289,4.289,0,0,1,1.492-.9,4.443,4.443,0,0,1,1.747-.246A4.332,4.332,0,0,1,6.617,8,5.081,5.081,0,0,1,8.59,10.089a4.791,4.791,0,0,1,.48,2.773v.618a11.1,11.1,0,0,1,1.249-2.694,7.2,7.2,0,0,1,2.755-2.62,7.634,7.634,0,0,1,3.769-.913,4.258,4.258,0,0,1,1.752.134,4.126,4.126,0,0,1,1.529.827,3.9,3.9,0,0,1,1.022,1.365,3.731,3.731,0,0,1,.324,1.649,4.038,4.038,0,0,1-1.064,2.827A5.1,5.1,0,0,1,17.074,15.2a23.833,23.833,0,0,0-2.545,0C9.9,16,9.671,20.723,9.578,24.035v9.716a5.615,5.615,0,0,1-.156,2.329,5.775,5.775,0,0,1-1.094,2.087,4.666,4.666,0,0,1-1.685,1,4.833,4.833,0,0,1-1.97.235,7.19,7.19,0,0,1-1.619-.265C.047,38.345.047,35.562.047,33.752Z" transform="translate(0 4.807)" fill="#fff"/>
  <path id="Path_14" data-name="Path 14" d="M33.678,19.339a9.325,9.325,0,0,0-.891-3.039,5.757,5.757,0,0,0-2.2-1.826,5.925,5.925,0,0,0-2.834-.562,6.662,6.662,0,0,0-4.456,1.446,6.346,6.346,0,0,0-2.317,3.981Zm-12.7,6.426a7.5,7.5,0,0,0,1.961,4.646,6.33,6.33,0,0,0,2.205,1.515,6.474,6.474,0,0,0,2.652.482,5.982,5.982,0,0,0,2.388-.281,5.87,5.87,0,0,0,2.069-1.2,11.489,11.489,0,0,1,1.07-1,3.917,3.917,0,0,1,2.022-.957,3.969,3.969,0,0,1,2.227.3,3.846,3.846,0,0,1,1.683,1.451,3.7,3.7,0,0,1,.574,2.117,4.263,4.263,0,0,1-.681,2.187,4.413,4.413,0,0,1-1.726,1.547A16.757,16.757,0,0,1,27.573,39.4a15.467,15.467,0,0,1-6.372-.987,15.138,15.138,0,0,1-5.368-3.487,14.663,14.663,0,0,1-3.385-5.351,14.367,14.367,0,0,1-.785-6.239,14.8,14.8,0,0,1,.929-6.208,15.106,15.106,0,0,1,3.43-5.309,15.582,15.582,0,0,1,5.343-3.5,15.916,15.916,0,0,1,6.34-1.092,14.229,14.229,0,0,1,5.685.978,13.929,13.929,0,0,1,4.787,3.144,13.5,13.5,0,0,1,3.064,4.768,13.229,13.229,0,0,1,.812,5.569c0,3.951-2.139,4.038-3.788,4.082Z" transform="translate(7.727 4.807)" fill="#fff"/>
  <path id="Path_15" data-name="Path 15" d="M40.061,22.078a6.663,6.663,0,0,0,.27,2.729,6.776,6.776,0,0,0,1.35,2.405,6.982,6.982,0,0,0,2.212,1.694,7.147,7.147,0,0,0,2.717.709c4.548,0,6.821-3.679,6.821-7.891a6.4,6.4,0,0,0-.212-2.741,6.511,6.511,0,0,0-1.346-2.416A6.714,6.714,0,0,0,49.629,14.9a6.875,6.875,0,0,0-2.747-.624,7.288,7.288,0,0,0-2.847.691,7.119,7.119,0,0,0-2.322,1.749,6.91,6.91,0,0,0-1.4,2.512A6.793,6.793,0,0,0,40.061,22.078ZM62.526,33.6a14.92,14.92,0,0,1-.319,6.138,15.14,15.14,0,0,1-2.773,5.52,17.929,17.929,0,0,1-6.067,3.5,18.255,18.255,0,0,1-6.985.933,20.691,20.691,0,0,1-8.413-1.685,5.607,5.607,0,0,1-2.7-1.744,5.382,5.382,0,0,1-1.256-2.911,3.865,3.865,0,0,1,1.276-2.517,4.059,4.059,0,0,1,2.68-1.029,5.236,5.236,0,0,1,2.456.709,15.787,15.787,0,0,1,1.683,1.153,8.19,8.19,0,0,0,4.82,1.552,7.494,7.494,0,0,0,4.866-1.552c1.865-1.552,1.91-3.369,2.046-8.334A7.475,7.475,0,0,1,51.7,35.288a12.743,12.743,0,0,1-7.049,1.995,13.945,13.945,0,0,1-5.592-1.132,13.637,13.637,0,0,1-4.627-3.265,13.222,13.222,0,0,1-2.85-4.825,12.982,12.982,0,0,1-.574-5.54c0-8.378,5-15.294,13.643-15.294a11.441,11.441,0,0,1,5.016.912,11.167,11.167,0,0,1,4.079,2.989A4.146,4.146,0,0,1,55.21,8.687a4.342,4.342,0,0,1,2.723-.971,4.978,4.978,0,0,1,1.773.31c2.638.975,2.729,3.724,2.729,5.408Z" transform="translate(20.604 4.807)" fill="#fff"/>
  <path id="Path_16" data-name="Path 16" d="M52.146,17.359A5.577,5.577,0,0,1,53.352,13.5a4.456,4.456,0,0,1,3.127-1.211,5.3,5.3,0,0,1,1.965.359A4.491,4.491,0,0,1,60.9,17.538V38.575a6.661,6.661,0,0,1-.893,3.992,4.058,4.058,0,0,1-3.44,1.66,4.672,4.672,0,0,1-1.787-.269,4.895,4.895,0,0,1-2.635-5.293Zm0-12.873a4.476,4.476,0,1,1,1.308,3.172A4.5,4.5,0,0,1,52.146,4.485Z" transform="translate(34.683 0)" fill="#fff"/>
  <path id="Path_17" data-name="Path 17" d="M77.973,15.511a5.316,5.316,0,0,0-2.171-2.1,5,5,0,0,0-2.908-.523c-2.671,0-4.379,1.1-4.379,2.711s1.927,2.435,4.9,3.308l3.109,1.011c4.379,1.424,9.633,2.986,9.633,9.832,0,3.813-2.189,10.337-13.136,10.337-8.8.368-13.486-4.227-13.486-7.9a4.221,4.221,0,0,1,.259-1.6,4.07,4.07,0,0,1,.838-1.365,3.85,3.85,0,0,1,1.282-.909,3.7,3.7,0,0,1,1.519-.307,4.24,4.24,0,0,1,2.365.79,4.553,4.553,0,0,1,1.576,2.012,6,6,0,0,0,2.5,2.222,5.661,5.661,0,0,0,3.24.488c2.8,0,4.379-1.057,4.379-3.032S75.871,28.1,74.47,27.64l-5.561-1.654C65.8,24.975,60.458,23.23,60.458,16.8a9.8,9.8,0,0,1,2.233-6.524,13.88,13.88,0,0,1,4.973-3.232,13.362,13.362,0,0,1,5.8-.811C80.906,6.231,85.2,10,85.2,13.122a4.306,4.306,0,0,1-.333,1.575,4.14,4.14,0,0,1-.883,1.322,3.921,3.921,0,0,1-1.3.867,3.777,3.777,0,0,1-1.515.279,3.287,3.287,0,0,1-1.793-.439,3.5,3.5,0,0,1-1.315-1.353" transform="translate(39.663 4.121)" fill="#fff"/>
  <path id="Path_18" data-name="Path 18" d="M88.73,11.125c2.579,0,3.158,0,3.914.409a3.19,3.19,0,0,1,1.272,1.249,3.287,3.287,0,0,1,.418,1.752,4.078,4.078,0,0,1-.4,1.682c-.934,1.773-2.135,1.773-5.2,1.773V33.36c0,2.683.978,3,3.158,3a2.746,2.746,0,0,1,1.191.2,2.8,2.8,0,0,1,1,.695,2.878,2.878,0,0,1,.62,1.06,2.927,2.927,0,0,1,.126,1.228c0,3.774-4.18,4-6.493,4-8.139,0-8.316-4.865-8.316-8.548V17.991a5.887,5.887,0,0,1-2.846-.455,3.146,3.146,0,0,1-1.253-1.254,3.24,3.24,0,0,1-.392-1.747,3.569,3.569,0,0,1,.311-1.546c.845-1.864,2.668-1.864,4.18-1.864V6.579a6.609,6.609,0,0,1,1.112-4.138,4.445,4.445,0,0,1,1.5-1.057,4.363,4.363,0,0,1,1.79-.353,4.623,4.623,0,0,1,1.646.318c2.624,1,2.624,3.637,2.668,5.5Z" transform="translate(50.308 0.687)" fill="#fff"/>
  <path id="Path_19" data-name="Path 19" d="M109.13,19.336a9.354,9.354,0,0,0-1.111-3.038,5.835,5.835,0,0,0-2.221-1.825,5.985,5.985,0,0,0-2.845-.562,6.58,6.58,0,0,0-4.286,1.523,6.3,6.3,0,0,0-2.2,3.9ZM96.466,25.759A7.673,7.673,0,0,0,98.377,30.4a6.447,6.447,0,0,0,2.224,1.512,6.576,6.576,0,0,0,2.664.485,5.905,5.905,0,0,0,2.382-.277,5.806,5.806,0,0,0,2.061-1.2,8.135,8.135,0,0,1,1.111-1,3.966,3.966,0,0,1,2.578-1,4.087,4.087,0,0,1,2.758,1.186,3.9,3.9,0,0,1,1.151,2.72,4.265,4.265,0,0,1-.678,2.186,4.41,4.41,0,0,1-1.72,1.547,16.677,16.677,0,0,1-9.687,2.821,15.386,15.386,0,0,1-6.409-.93A15.1,15.1,0,0,1,91.4,34.985a14.665,14.665,0,0,1-3.421-5.375,14.4,14.4,0,0,1-.793-6.282,14.828,14.828,0,0,1,.93-6.216A15.106,15.106,0,0,1,91.542,11.8a15.535,15.535,0,0,1,5.343-3.5,15.834,15.834,0,0,1,6.335-1.078,14.16,14.16,0,0,1,5.683.964,13.893,13.893,0,0,1,4.789,3.14,13.5,13.5,0,0,1,3.066,4.772,13.215,13.215,0,0,1,.813,5.578c0,3.95-2.176,4.037-3.776,4.08Z" transform="translate(58.035 4.807)" fill="#fff"/>
  <path id="Path_20" data-name="Path 20" d="M107.521,13.063a5.528,5.528,0,0,1,.2-2.356,5.64,5.64,0,0,1,1.168-2.075,4.272,4.272,0,0,1,1.413-.874,4.379,4.379,0,0,1,1.651-.278,4.7,4.7,0,0,1,1.921.4,5.057,5.057,0,0,1,1.949,2.092,4.87,4.87,0,0,1,.475,2.781v.62a8.675,8.675,0,0,1,1.19-2.569,7.064,7.064,0,0,1,2.714-2.641,7.368,7.368,0,0,1,3.734-.9,4.1,4.1,0,0,1,1.74.118,4.028,4.028,0,0,1,1.521.827,3.861,3.861,0,0,1,1.008,1.378,3.759,3.759,0,0,1,.3,1.664,3.917,3.917,0,0,1-1.053,2.835,4.893,4.893,0,0,1-3.292,1.152,21.568,21.568,0,0,0-2.469,0c-4.574.8-4.849,5.538-4.894,8.86v9.613a5.7,5.7,0,0,1-.155,2.336,5.809,5.809,0,0,1-1.08,2.094,4.6,4.6,0,0,1-1.513.964,4.7,4.7,0,0,1-1.781.32,7.357,7.357,0,0,1-1.646-.266c-3.064-.8-3.156-3.544-3.156-5.4Z" transform="translate(71.599 4.807)" fill="#fff"/>
  <path id="Path_21" data-name="Path 21" d="M148.154,30.312a3.614,3.614,0,0,1,1.266-1.814,3.44,3.44,0,0,1,2.063-.7,3.975,3.975,0,0,1,1.671.209,4.051,4.051,0,0,1,1.446.886,4.19,4.19,0,0,1,.978,1.412,4.327,4.327,0,0,1,.342,1.7c0,3.107-4.127,9.139-12.825,9.139-10.56,0-15.442-7.54-15.442-16.679a16.147,16.147,0,0,1,.743-6.644,15.76,15.76,0,0,1,3.364-5.721,15.205,15.205,0,0,1,5.373-3.756,14.831,14.831,0,0,1,6.407-1.107,13.945,13.945,0,0,1,9.672,3.473,6.072,6.072,0,0,1,1.766,1.991,6.263,6.263,0,0,1,.763,2.579,4.108,4.108,0,0,1-.288,1.564,4.03,4.03,0,0,1-.855,1.326,3.907,3.907,0,0,1-1.288.88,3.8,3.8,0,0,1-1.518.3,3.6,3.6,0,0,1-1.576-.286,3.682,3.682,0,0,1-1.308-.947c-.4-.411-.71-.914-1.065-1.325a5.588,5.588,0,0,0-1.963-1.657,5.422,5.422,0,0,0-2.474-.583,5.087,5.087,0,0,0-3.284,1.005c-1.2.731-3.327,2.468-3.327,8.637,0,4.158,1.02,9.139,6.921,9.139a4.682,4.682,0,0,0,2.8-.7,4.892,4.892,0,0,0,1.9-2.225" transform="translate(84.992 4.808)" fill="#fff"/>
  <path id="Path_22" data-name="Path 22" d="M157.231,15.679a9.578,9.578,0,0,0-2.349,3.412,9.07,9.07,0,0,0-.636,4.017c0,5.55,2.519,9.221,7.463,9.221a7.306,7.306,0,0,0,3.469-.863,6.753,6.753,0,0,0,2.548-2.37,11.239,11.239,0,0,0,1.446-6.118,11.1,11.1,0,0,0-1.213-5.462,6.558,6.558,0,0,0-2.6-2.466,7.132,7.132,0,0,0-3.6-.812,6.77,6.77,0,0,0-4.664,1.442Zm4.757-8.434a17.392,17.392,0,0,1,6.67,1.168,16.494,16.494,0,0,1,5.6,3.6A16.028,16.028,0,0,1,178.5,23.152a14.721,14.721,0,0,1-1.1,6.265,15.523,15.523,0,0,1-3.671,5.337,16.772,16.772,0,0,1-5.635,3.525,17.649,17.649,0,0,1-6.668,1.129,17.061,17.061,0,0,1-6.681-1.046,16.2,16.2,0,0,1-5.632-3.53,14.984,14.984,0,0,1-3.581-5.389,14.223,14.223,0,0,1-.9-6.292,14.5,14.5,0,0,1,1.148-6.267,15.3,15.3,0,0,1,3.761-5.292,16.554,16.554,0,0,1,5.73-3.408A17.377,17.377,0,0,1,161.988,7.245Z" transform="translate(96.324 4.808)" fill="#fff"/>
  <path id="Path_23" data-name="Path 23" d="M166.078,12.933a6.214,6.214,0,0,1,1.216-3.9,4.548,4.548,0,0,1,3.2-1.2c3.6,0,4.187,2.877,4.5,4.427a8.4,8.4,0,0,1,3.4-3.818,8.627,8.627,0,0,1,5.02-1.184,8.309,8.309,0,0,1,5.217,1.153,8.086,8.086,0,0,1,3.384,4.071,11.064,11.064,0,0,1,3.441-3.464,11.306,11.306,0,0,1,13.761,1.251,13.377,13.377,0,0,1,2.568,10V33.916a6.163,6.163,0,0,1-.946,3.984,4.51,4.51,0,0,1-1.591,1.114,4.57,4.57,0,0,1-1.921.347,4.209,4.209,0,0,1-1.73-.258,4.162,4.162,0,0,1-1.468-.937,5.339,5.339,0,0,1-1.216-4.117V21.3c0-1.948,0-6.02-4.5-6.02a4.574,4.574,0,0,0-1.886.316,4.494,4.494,0,0,0-1.581,1.057,6.381,6.381,0,0,0-1.351,4.427V34c0,1.771,0,5.356-4.5,5.356a5.731,5.731,0,0,1-1.711,0c-2.883-.974-2.883-3.9-2.883-5.445v-12c0-2.169,0-6.64-4.5-6.64a4.783,4.783,0,0,0-3.017.93,7.806,7.806,0,0,0-1.656,2.846A7.707,7.707,0,0,0,175,22.318v11.6a6.121,6.121,0,0,1-1.036,4.073,4.235,4.235,0,0,1-1.531,1.063,4.291,4.291,0,0,1-1.846.309,5.407,5.407,0,0,1-1.621,0,4.48,4.48,0,0,1-2.413-2.014,4.367,4.367,0,0,1-.47-3.077Z" transform="translate(110.575 4.808)" fill="#fff"/>
  <path id="Path_24" data-name="Path 24" d="M130.5,26.33a6.228,6.228,0,1,1-1.824-4.4A6.222,6.222,0,0,1,130.5,26.33Z" transform="translate(78.639 13.393)" fill="#fff"/>
  <path id="Path_25" data-name="Path 25" d="M204.292,9.284a7.372,7.372,0,0,1-.393,2.426,7.628,7.628,0,0,1-1.046,1.989,5.338,5.338,0,0,1-1.7,1.359,4.741,4.741,0,0,1-2.226.485,4.818,4.818,0,0,1-2.268-.485,4.9,4.9,0,0,1-1.7-1.359,6.367,6.367,0,0,1-1-1.989,7.373,7.373,0,0,1-.393-2.426,7.084,7.084,0,0,1,.393-2.378,6.077,6.077,0,0,1,1.09-1.989,4.787,4.787,0,0,1,1.66-1.359,5.343,5.343,0,0,1,4.364,0,5.409,5.409,0,0,1,2.749,3.348A7.066,7.066,0,0,1,204.292,9.284Zm-.916,0A6.1,6.1,0,0,0,203.2,7.3a6.627,6.627,0,0,0-.873-1.7,4.777,4.777,0,0,0-1.4-1.165,4.538,4.538,0,0,0-3.861-.016A4.418,4.418,0,0,0,195.608,5.6a5.513,5.513,0,0,0-.873,1.7,6.078,6.078,0,0,0-.3,1.989,6.078,6.078,0,0,0,.3,1.989,5.432,5.432,0,0,0,.83,1.7,4.423,4.423,0,0,0,1.481,1.19,3.994,3.994,0,0,0,1.791.411,3.716,3.716,0,0,0,1.833-.437,4.406,4.406,0,0,0,1.44-1.165,6.4,6.4,0,0,0,1.091-1.6,6.091,6.091,0,0,0,0-2.086Zm-1.615,3.348a1.454,1.454,0,0,1-.83.243,1.061,1.061,0,0,1-.523,0,.568.568,0,0,1-.248-.161.659.659,0,0,1-.145-.275l-1.178-2.378h-.612V12.73h-1.308V5.5h1.919a2.719,2.719,0,0,1,1.964.631,2.192,2.192,0,0,1,.6,1.1,2.357,2.357,0,0,1-.075,1.281,1.215,1.215,0,0,1-.3.631,1.782,1.782,0,0,1-.393.437,1.428,1.428,0,0,1-.523.291ZM200.015,7.78c0-.776-.392-1.165-1.221-1.165h-.655V8.945h.7a1.232,1.232,0,0,0,.873-.34,1.445,1.445,0,0,0,.3-.873Z" transform="translate(128.947 2.061)" fill="#fff"/>
</svg>
